<?xml version="1.0" encoding="UTF-8"?>
<!DOCTYPE svg PUBLIC "-//W3C//DTD SVG 1.1//EN" "http://www.w3.org/Graphics/SVG/1.1/DTD/svg11.dtd">
<svg xmlns="http://www.w3.org/2000/svg" version="1.1" width="147px" height="134px" style="shape-rendering:geometricPrecision; text-rendering:geometricPrecision; image-rendering:optimizeQuality; fill-rule:evenodd; clip-rule:evenodd" xmlns:xlink="http://www.w3.org/1999/xlink">
<g><path style="opacity:0.184" fill="#ffdcd8" d="M 87.5,2.5 C 86.391,2.55688 85.391,2.89022 84.5,3.5C 85.0527,1.44818 86.0527,1.11484 87.5,2.5 Z"/></g>
<g><path style="opacity:0.216" fill="#fed5d5" d="M 90.5,-0.5 C 90.8333,-0.5 91.1667,-0.5 91.5,-0.5C 91.5,1.16667 91.5,2.83333 91.5,4.5C 89.6203,4.77089 88.287,4.10422 87.5,2.5C 88.4959,2.41423 89.3292,2.74756 90,3.5C 90.49,2.20677 90.6567,0.873441 90.5,-0.5 Z"/></g>
<g><path style="opacity:0.906" fill="#e87676" d="M 87.5,2.5 C 88.287,4.10422 89.6203,4.77089 91.5,4.5C 91.5,4.83333 91.5,5.16667 91.5,5.5C 89.7376,5.64271 88.0709,5.30937 86.5,4.5C 85.265,5.33977 84.265,6.33977 83.5,7.5C 83.5,6.83333 83.5,6.16667 83.5,5.5C 83.3284,4.50838 83.6618,3.84171 84.5,3.5C 85.391,2.89022 86.391,2.55688 87.5,2.5 Z"/></g>
<g><path style="opacity:0.118" fill="#ffdfdd" d="M 83.5,5.5 C 83.5,6.16667 83.5,6.83333 83.5,7.5C 80.8333,7.5 78.1667,7.5 75.5,7.5C 78.0529,6.74508 80.7196,6.07841 83.5,5.5 Z"/></g>
<g><path style="opacity:0.058" fill="#fdd1d1" d="M 94.5,3.5 C 98.7549,5.92943 103.422,7.09609 108.5,7C 109.267,8.47049 109.933,9.97049 110.5,11.5C 108.974,10.8953 107.974,9.72861 107.5,8C 104.5,7.66667 101.5,7.33333 98.5,7C 96.4556,6.50167 95.1223,5.33501 94.5,3.5 Z"/></g>
<g><path style="opacity:0.941" fill="#e15759" d="M 91.5,-0.5 C 92.5,-0.5 93.5,-0.5 94.5,-0.5C 94.5,0.833333 94.5,2.16667 94.5,3.5C 95.1223,5.33501 96.4556,6.50167 98.5,7C 101.5,7.33333 104.5,7.66667 107.5,8C 107.974,9.72861 108.974,10.8953 110.5,11.5C 110.833,12.1667 111.167,12.8333 111.5,13.5C 108.886,13.7229 107.219,12.5562 106.5,10C 103.833,9.66667 101.167,9.33333 98.5,9C 96.1498,7.82491 93.8165,6.65825 91.5,5.5C 91.5,5.16667 91.5,4.83333 91.5,4.5C 91.5,2.83333 91.5,1.16667 91.5,-0.5 Z"/></g>
<g><path style="opacity:1" fill="#d6595d" d="M 63.5,9.5 C 65.5529,9.40206 67.2196,10.0687 68.5,11.5C 66.712,11.2148 65.0453,11.5481 63.5,12.5C 64.5437,13.6226 65.2104,14.9559 65.5,16.5C 64.4112,20.0968 63.7445,23.7634 63.5,27.5C 65.099,27.2322 66.4324,27.5655 67.5,28.5C 65.5,28.5 63.5,28.5 61.5,28.5C 62.1587,25.5448 62.4921,22.5448 62.5,19.5C 63.8799,19.0377 64.5466,18.0377 64.5,16.5C 63.7515,14.9644 62.7515,13.6311 61.5,12.5C 62.1925,11.4822 62.8592,10.4822 63.5,9.5 Z"/></g>
<g><path style="opacity:0.259" fill="#feb9b6" d="M 75.5,7.5 C 78.1667,7.5 80.8333,7.5 83.5,7.5C 81.0521,8.47307 78.3854,8.8064 75.5,8.5C 75.5,9.5 75.5,10.5 75.5,11.5C 73.1667,11.5 70.8333,11.5 68.5,11.5C 67.2196,10.0687 65.5529,9.40206 63.5,9.5C 63.9169,8.87605 64.5836,8.54272 65.5,8.5C 68.0067,9.64913 70.34,10.3158 72.5,10.5C 73.735,9.66023 74.735,8.66023 75.5,7.5 Z"/></g>
<g><path style="opacity:1" fill="#ed3135" d="M 91.5,5.5 C 93.8165,6.65825 96.1498,7.82491 98.5,9C 101.167,9.33333 103.833,9.66667 106.5,10C 107.219,12.5562 108.886,13.7229 111.5,13.5C 116.765,14.6253 120.765,17.4587 123.5,22C 122.87,23.3102 121.87,24.1435 120.5,24.5C 113.692,22.9231 106.692,22.2564 99.5,22.5C 99.1138,26.3487 97.7805,29.682 95.5,32.5C 99.4275,30.4373 103.761,29.4373 108.5,29.5C 108.5,30.5 108.5,31.5 108.5,32.5C 112.402,32.6905 116.069,33.6905 119.5,35.5C 120.391,36.1098 121.391,36.4431 122.5,36.5C 123.757,39.4274 125.757,41.7607 128.5,43.5C 128.5,44.8333 128.5,46.1667 128.5,47.5C 129.038,51.5181 131.205,52.8515 135,51.5C 136.128,49.6547 136.628,47.6547 136.5,45.5C 139.863,45.5127 142.03,47.1794 143,50.5C 143.429,57.9047 144.596,64.9047 146.5,71.5C 146.5,73.8333 146.5,76.1667 146.5,78.5C 144.934,82.2165 143.768,86.2165 143,90.5C 142.667,82.5 142.333,74.5 142,66.5C 138.965,65.8157 136.631,64.149 135,61.5C 134.657,64.3241 135.157,66.9907 136.5,69.5C 135.62,72.8015 134.954,76.1349 134.5,79.5C 133.434,81.7014 132.767,84.0347 132.5,86.5C 130.194,89.4729 127.527,92.1395 124.5,94.5C 122.236,95.2186 119.903,95.552 117.5,95.5C 117.662,93.4727 117.495,91.4727 117,89.5C 116.617,88.944 116.117,88.6107 115.5,88.5C 111.618,90.0161 107.618,91.3494 103.5,92.5C 95.5,92.5 87.5,92.5 79.5,92.5C 79.5,93.5 79.5,94.5 79.5,95.5C 78.8333,96.8333 77.8333,97.8333 76.5,98.5C 72.8183,98.3347 69.1516,98.5014 65.5,99C 63.5614,99.9078 62.5614,101.408 62.5,103.5C 58.2147,104.295 53.8814,104.628 49.5,104.5C 45.7634,104.255 42.0968,103.589 38.5,102.5C 36.9704,102.64 35.9704,103.307 35.5,104.5C 34.8333,105.833 33.8333,106.833 32.5,107.5C 30.8008,107.34 29.1341,107.506 27.5,108C 28.6091,109.813 27.9424,110.646 25.5,110.5C 27.5067,105.645 29.8401,100.978 32.5,96.5C 37.2215,97.194 41.8882,97.194 46.5,96.5C 46.7036,94.3146 47.3702,92.3146 48.5,90.5C 50.9657,88.2597 52.9657,85.593 54.5,82.5C 52.845,77.7248 52.0116,72.7248 52,67.5C 50.117,66.3474 49.2837,64.6807 49.5,62.5C 51.8568,62.6633 54.1902,62.4966 56.5,62C 57.3805,61.2917 58.0472,60.4584 58.5,59.5C 59.1667,59.5 59.8333,59.5 60.5,59.5C 68.7991,59.6902 76.9658,60.6902 85,62.5C 87.1667,62.1667 89.3333,61.8333 91.5,61.5C 92.1272,60.5832 92.4606,59.5832 92.5,58.5C 93.1667,58.5 93.5,58.1667 93.5,57.5C 94.7883,54.2999 94.7883,50.9666 93.5,47.5C 88.477,45.9888 83.6437,46.3221 79,48.5C 78.79,46.9419 78.29,45.6085 77.5,44.5C 77.1667,44.5 76.8333,44.5 76.5,44.5C 76.1667,43.1667 75.8333,41.8333 75.5,40.5C 75.1788,38.9519 74.1788,38.2852 72.5,38.5C 72.7852,36.712 72.4519,35.0453 71.5,33.5C 70.1408,32.3757 69.1408,31.0423 68.5,29.5C 68.5,28.8333 68.1667,28.5 67.5,28.5C 66.4324,27.5655 65.099,27.2322 63.5,27.5C 63.7445,23.7634 64.4112,20.0968 65.5,16.5C 65.2104,14.9559 64.5437,13.6226 63.5,12.5C 65.0453,11.5481 66.712,11.2148 68.5,11.5C 70.8333,11.5 73.1667,11.5 75.5,11.5C 75.5,10.5 75.5,9.5 75.5,8.5C 78.3854,8.8064 81.0521,8.47307 83.5,7.5C 84.265,6.33977 85.265,5.33977 86.5,4.5C 88.0709,5.30937 89.7376,5.64271 91.5,5.5 Z"/></g>
<g><path style="opacity:0.129" fill="#fad1cd" d="M 63.5,9.5 C 62.8592,10.4822 62.1925,11.4822 61.5,12.5C 62.7515,13.6311 63.7515,14.9644 64.5,16.5C 64.5466,18.0377 63.8799,19.0377 62.5,19.5C 62.5394,18.4168 62.8728,17.4168 63.5,16.5C 58.1978,14.0933 58.1978,11.76 63.5,9.5 Z"/></g>
<g><path style="opacity:0.035" fill="#fed5d3" d="M 110.5,11.5 C 115.643,12.9916 120.143,15.6582 124,19.5C 124.966,24.8757 122.632,27.5424 117,27.5C 115.615,27.4857 114.449,27.1524 113.5,26.5C 115.527,26.6621 117.527,26.4955 119.5,26C 120.056,25.6174 120.389,25.1174 120.5,24.5C 121.87,24.1435 122.87,23.3102 123.5,22C 120.765,17.4587 116.765,14.6253 111.5,13.5C 111.167,12.8333 110.833,12.1667 110.5,11.5 Z"/></g>
<g><path style="opacity:0.251" fill="#fed3d6" d="M 62.5,19.5 C 62.4921,22.5448 62.1587,25.5448 61.5,28.5C 63.5,28.5 65.5,28.5 67.5,28.5C 68.1667,28.5 68.5,28.8333 68.5,29.5C 68.366,31.2915 68.6993,32.9582 69.5,34.5C 66.6108,34.001 65.9442,32.501 67.5,30C 64.6287,29.8823 61.962,29.2156 59.5,28C 60.6932,25.1295 61.6932,22.2962 62.5,19.5 Z"/></g>
<g><path style="opacity:1" fill="#e54345" d="M 120.5,24.5 C 120.389,25.1174 120.056,25.6174 119.5,26C 117.527,26.4955 115.527,26.6621 113.5,26.5C 112.508,26.6716 111.842,26.3382 111.5,25.5C 111.5,25.1667 111.5,24.8333 111.5,24.5C 108.375,23.5206 105.042,23.1872 101.5,23.5C 101.285,25.1788 101.952,26.1788 103.5,26.5C 104.167,26.5 104.833,26.5 105.5,26.5C 107.403,26.7959 109.07,27.4625 110.5,28.5C 113.681,30.5917 116.681,32.925 119.5,35.5C 116.069,33.6905 112.402,32.6905 108.5,32.5C 108.5,31.5 108.5,30.5 108.5,29.5C 103.761,29.4373 99.4275,30.4373 95.5,32.5C 97.7805,29.682 99.1138,26.3487 99.5,22.5C 106.692,22.2564 113.692,22.9231 120.5,24.5 Z"/></g>
<g><path style="opacity:0.029" fill="#ffddda" d="M 111.5,24.5 C 111.5,24.8333 111.5,25.1667 111.5,25.5C 109.265,25.2053 107.265,25.5386 105.5,26.5C 104.833,26.5 104.167,26.5 103.5,26.5C 103.389,25.8826 103.056,25.3826 102.5,25C 105.482,24.502 108.482,24.3354 111.5,24.5 Z"/></g>
<g><path style="opacity:0.635" fill="#df7071" d="M 111.5,24.5 C 108.482,24.3354 105.482,24.502 102.5,25C 103.056,25.3826 103.389,25.8826 103.5,26.5C 101.952,26.1788 101.285,25.1788 101.5,23.5C 105.042,23.1872 108.375,23.5206 111.5,24.5 Z"/></g>
<g><path style="opacity:0.243" fill="#fab8bc" d="M 110.5,28.5 C 115.322,29.9977 119.322,32.6644 122.5,36.5C 121.391,36.4431 120.391,36.1098 119.5,35.5C 116.681,32.925 113.681,30.5917 110.5,28.5 Z"/></g>
<g><path style="opacity:0.639" fill="#f6aead" d="M 122.5,36.5 C 125.243,38.2393 127.243,40.5726 128.5,43.5C 125.757,41.7607 123.757,39.4274 122.5,36.5 Z"/></g>
<g><path style="opacity:0.337" fill="#fed1d1" d="M 69.5,34.5 C 70.4972,34.4701 71.1639,34.9701 71.5,36C 69.5708,37.6942 68.5708,39.8609 68.5,42.5C 70.7373,41.551 73.0706,40.8844 75.5,40.5C 75.8333,41.8333 76.1667,43.1667 76.5,44.5C 75.2876,43.7701 74.2876,42.7701 73.5,41.5C 71.7405,44.926 69.5738,45.2594 67,42.5C 65.9581,39.1961 67.1247,37.0295 70.5,36C 69.944,35.6174 69.6107,35.1174 69.5,34.5 Z"/></g>
<g><path style="opacity:1" fill="#d74e4d" d="M 68.5,29.5 C 69.1408,31.0423 70.1408,32.3757 71.5,33.5C 72.4519,35.0453 72.7852,36.712 72.5,38.5C 74.1788,38.2852 75.1788,38.9519 75.5,40.5C 73.0706,40.8844 70.7373,41.551 68.5,42.5C 68.5708,39.8609 69.5708,37.6942 71.5,36C 71.1639,34.9701 70.4972,34.4701 69.5,34.5C 68.6993,32.9582 68.366,31.2915 68.5,29.5 Z"/></g>
<g><path style="opacity:0.451" fill="#f7bbbd" d="M 144.5,47.5 C 143.173,44.3429 140.84,43.1762 137.5,44C 136.944,44.3826 136.611,44.8826 136.5,45.5C 135.833,45.8333 135.167,46.1667 134.5,46.5C 136.626,40.8433 139.793,40.1767 144,44.5C 144.483,45.448 144.649,46.448 144.5,47.5 Z"/></g>
<g><path style="opacity:1" fill="#dd4c4f" d="M 77.5,44.5 C 78.29,45.6085 78.79,46.9419 79,48.5C 83.6437,46.3221 88.477,45.9888 93.5,47.5C 94.7883,50.9666 94.7883,54.2999 93.5,57.5C 93.6641,54.8127 93.4974,52.146 93,49.5C 92.3292,48.7476 91.4959,48.4142 90.5,48.5C 88.0336,47.3659 85.367,47.1993 82.5,48C 81.0577,48.3768 80.0577,49.2101 79.5,50.5C 77.6921,49.0821 77.0254,47.0821 77.5,44.5 Z"/></g>
<g><path style="opacity:0.839" fill="#f59d9d" d="M 128.5,43.5 C 129.674,44.5137 130.34,45.847 130.5,47.5C 129.833,47.5 129.167,47.5 128.5,47.5C 128.5,46.1667 128.5,44.8333 128.5,43.5 Z"/></g>
<g><path style="opacity:1" fill="#dd4547" d="M 144.5,47.5 C 144.994,53.992 145.661,60.3253 146.5,66.5C 146.5,68.1667 146.5,69.8333 146.5,71.5C 144.596,64.9047 143.429,57.9047 143,50.5C 142.03,47.1794 139.863,45.5127 136.5,45.5C 136.611,44.8826 136.944,44.3826 137.5,44C 140.84,43.1762 143.173,44.3429 144.5,47.5 Z"/></g>
<g><path style="opacity:0.463" fill="#fac6c5" d="M 76.5,44.5 C 76.8333,44.5 77.1667,44.5 77.5,44.5C 77.0254,47.0821 77.6921,49.0821 79.5,50.5C 78.4583,51.7911 77.2917,51.7911 76,50.5C 75.8195,48.5116 75.9862,46.5116 76.5,44.5 Z"/></g>
<g><path style="opacity:0.314" fill="#fcc0c0" d="M 90.5,48.5 C 86.6331,48.2417 82.9664,48.9084 79.5,50.5C 80.0577,49.2101 81.0577,48.3768 82.5,48C 85.367,47.1993 88.0336,47.3659 90.5,48.5 Z"/></g>
<g><path style="opacity:0.098" fill="#ffdbd2" d="M 134.5,46.5 C 133.321,50.8081 131.987,51.1415 130.5,47.5C 131.962,48.4709 133.295,48.1376 134.5,46.5 Z"/></g>
<g><path style="opacity:1" fill="#e04d51" d="M 136.5,45.5 C 136.628,47.6547 136.128,49.6547 135,51.5C 131.205,52.8515 129.038,51.5181 128.5,47.5C 129.167,47.5 129.833,47.5 130.5,47.5C 131.987,51.1415 133.321,50.8081 134.5,46.5C 135.167,46.1667 135.833,45.8333 136.5,45.5 Z"/></g>
<g><path style="opacity:0.184" fill="#fab8b6" d="M 90.5,48.5 C 91.4959,48.4142 92.3292,48.7476 93,49.5C 93.4974,52.146 93.6641,54.8127 93.5,57.5C 93.5,58.1667 93.1667,58.5 92.5,58.5C 92.1667,58.5 91.8333,58.5 91.5,58.5C 92.9942,54.9749 92.6609,51.6415 90.5,48.5 Z"/></g>
<g><path style="opacity:0.067" fill="#ffcbcd" d="M 144.5,47.5 C 145.167,48.5 145.833,49.5 146.5,50.5C 146.5,55.8333 146.5,61.1667 146.5,66.5C 145.661,60.3253 144.994,53.992 144.5,47.5 Z"/></g>
<g><path style="opacity:0.541" fill="#f4b7b8" d="M 72.5,57.5 C 69.1501,57.335 65.8168,57.5017 62.5,58C 61.5842,58.2784 60.9175,58.7784 60.5,59.5C 59.8333,59.5 59.1667,59.5 58.5,59.5C 57.8333,59.5 57.1667,59.5 56.5,59.5C 59.796,57.4263 63.4626,56.093 67.5,55.5C 69.3361,56.0276 71.0028,56.6942 72.5,57.5 Z"/></g>
<g><path style="opacity:0.447" fill="#ffcacb" d="M 56.5,59.5 C 55.5514,60.1524 54.3847,60.4857 53,60.5C 46.6398,58.605 40.1398,58.105 33.5,59C 32.944,59.3826 32.6107,59.8826 32.5,60.5C 30.7541,62.2516 28.7541,63.5849 26.5,64.5C 28.2941,62.2034 30.2941,60.0367 32.5,58C 35.682,57.5931 38.8486,57.0931 42,56.5C 46.7635,57.9729 51.5968,58.9729 56.5,59.5 Z"/></g>
<g><path style="opacity:0.024" fill="#fbc4c4" d="M 72.5,57.5 C 75.1522,57.4095 77.4855,58.0762 79.5,59.5C 76.7718,59.8294 74.4385,59.1628 72.5,57.5 Z"/></g>
<g><path style="opacity:1" fill="#e34d4d" d="M 72.5,57.5 C 74.4385,59.1628 76.7718,59.8294 79.5,59.5C 82.9758,60.6433 86.6425,60.8099 90.5,60C 91.056,59.6174 91.3893,59.1174 91.5,58.5C 91.8333,58.5 92.1667,58.5 92.5,58.5C 92.4606,59.5832 92.1272,60.5832 91.5,61.5C 89.3333,61.8333 87.1667,62.1667 85,62.5C 76.9658,60.6902 68.7991,59.6902 60.5,59.5C 60.9175,58.7784 61.5842,58.2784 62.5,58C 65.8168,57.5017 69.1501,57.335 72.5,57.5 Z"/></g>
<g><path style="opacity:0.065" fill="#ffd4d5" d="M 91.5,58.5 C 91.3893,59.1174 91.056,59.6174 90.5,60C 86.6425,60.8099 82.9758,60.6433 79.5,59.5C 83.5662,59.693 87.5662,59.3597 91.5,58.5 Z"/></g>
<g><path style="opacity:1" fill="#e83438" d="M 32.5,60.5 C 37.8746,60.1718 43.2079,60.5052 48.5,61.5C 45.2317,62.487 41.8984,62.8204 38.5,62.5C 38.5,64.1667 38.5,65.8333 38.5,67.5C 36.4451,69.5547 34.1117,71.2213 31.5,72.5C 27.5341,73.1621 23.5341,73.4955 19.5,73.5C 18.1667,73.1667 16.8333,72.8333 15.5,72.5C 12.9391,70.9065 9.93914,69.9065 6.5,69.5C 6.86273,68.8165 7.19607,68.1499 7.5,67.5C 11.7732,66.3017 16.1066,66.3017 20.5,67.5C 23.1016,67.5328 25.1016,66.5328 26.5,64.5C 28.7541,63.5849 30.7541,62.2516 32.5,60.5 Z"/></g>
<g><path style="opacity:0.451" fill="#fabebc" d="M 26.5,64.5 C 25.1016,66.5328 23.1016,67.5328 20.5,67.5C 16.1066,66.3017 11.7732,66.3017 7.5,67.5C 7.16667,67.5 6.83333,67.5 6.5,67.5C 6.5,67.1667 6.5,66.8333 6.5,66.5C 8.68889,65.4384 11.0222,64.7717 13.5,64.5C 17.8468,65.8296 22.1801,65.8296 26.5,64.5 Z"/></g>
<g><path style="opacity:0.278" fill="#fad8d6" d="M 6.5,66.5 C 6.5,66.8333 6.5,67.1667 6.5,67.5C 4.80022,68.016 3.46689,69.016 2.5,70.5C 6.31255,71.1671 9.97921,71.8337 13.5,72.5C 8.67836,72.352 4.0117,73.0187 -0.5,74.5C -0.5,73.1667 -0.5,71.8333 -0.5,70.5C 1.37183,68.3963 3.70516,67.063 6.5,66.5 Z"/></g>
<g><path style="opacity:0.749" fill="#de5e60" d="M 6.5,67.5 C 6.83333,67.5 7.16667,67.5 7.5,67.5C 7.19607,68.1499 6.86273,68.8165 6.5,69.5C 9.93914,69.9065 12.9391,70.9065 15.5,72.5C 14.8333,72.5 14.1667,72.5 13.5,72.5C 9.97921,71.8337 6.31255,71.1671 2.5,70.5C 3.46689,69.016 4.80022,68.016 6.5,67.5 Z"/></g>
<g><path style="opacity:0.51" fill="#fbc7c6" d="M 42.5,65.5 C 37.9464,71.8609 31.7797,75.5275 24,76.5C 20.0221,76.1424 16.5221,74.809 13.5,72.5C 14.1667,72.5 14.8333,72.5 15.5,72.5C 16.8333,72.8333 18.1667,73.1667 19.5,73.5C 20.964,74.1599 22.6307,74.4932 24.5,74.5C 27.2046,74.6839 29.5379,74.0173 31.5,72.5C 34.1117,71.2213 36.4451,69.5547 38.5,67.5C 39.6049,66.3995 40.9382,65.7329 42.5,65.5 Z"/></g>
<g><path style="opacity:0.89" fill="#d95a5d" d="M 31.5,72.5 C 29.5379,74.0173 27.2046,74.6839 24.5,74.5C 22.6307,74.4932 20.964,74.1599 19.5,73.5C 23.5341,73.4955 27.5341,73.1621 31.5,72.5 Z"/></g>
<g><path style="opacity:1" fill="#e34d4c" d="M 56.5,59.5 C 57.1667,59.5 57.8333,59.5 58.5,59.5C 58.0472,60.4584 57.3805,61.2917 56.5,62C 54.1902,62.4966 51.8568,62.6633 49.5,62.5C 49.2837,64.6807 50.117,66.3474 52,67.5C 52.0116,72.7248 52.845,77.7248 54.5,82.5C 52.9657,85.593 50.9657,88.2597 48.5,90.5C 49.6032,82.5485 49.7698,74.5485 49,66.5C 48.6174,65.944 48.1174,65.6107 47.5,65.5C 45.8333,65.5 44.1667,65.5 42.5,65.5C 40.9382,65.7329 39.6049,66.3995 38.5,67.5C 38.5,65.8333 38.5,64.1667 38.5,62.5C 41.8984,62.8204 45.2317,62.487 48.5,61.5C 43.2079,60.5052 37.8746,60.1718 32.5,60.5C 32.6107,59.8826 32.944,59.3826 33.5,59C 40.1398,58.105 46.6398,58.605 53,60.5C 54.3847,60.4857 55.5514,60.1524 56.5,59.5 Z"/></g>
<g><path style="opacity:0.259" fill="#f8baba" d="M 134.5,79.5 C 134.833,79.5 135.167,79.5 135.5,79.5C 135.293,82.2406 134.293,84.5739 132.5,86.5C 132.767,84.0347 133.434,81.7014 134.5,79.5 Z"/></g>
<g><path style="opacity:0.118" fill="#fed0d0" d="M 132.5,86.5 C 130.895,91.1045 127.895,94.4378 123.5,96.5C 123.833,95.8333 124.167,95.1667 124.5,94.5C 127.527,92.1395 130.194,89.4729 132.5,86.5 Z"/></g>
<g><path style="opacity:0.332" fill="#fdc1c0" d="M 146.5,79.5 C 146.5,85.5 146.5,91.5 146.5,97.5C 144.821,98.9997 143.488,100.833 142.5,103C 140.702,104.505 138.868,104.672 137,103.5C 135.646,97.3323 136.646,91.6656 140,86.5C 140.167,84.1667 140.333,81.8333 140.5,79.5C 140.716,70.3009 139.383,69.6342 136.5,77.5C 136.804,74.4781 137.304,71.4781 138,68.5C 139.716,67.4477 140.716,68.1144 141,70.5C 141.667,76.5 141.667,82.5 141,88.5C 140.333,89.1667 139.667,89.8333 139,90.5C 138.501,94.4862 138.334,98.4862 138.5,102.5C 139.822,102.67 140.989,102.337 142,101.5C 143,99.5 144,97.5 145,95.5C 145.173,89.9842 145.673,84.6509 146.5,79.5 Z"/></g>
<g><path style="opacity:0.718" fill="#e47477" d="M 103.5,92.5 C 103.5,92.8333 103.5,93.1667 103.5,93.5C 95.2279,92.9154 87.2279,93.5821 79.5,95.5C 79.5,94.5 79.5,93.5 79.5,92.5C 87.5,92.5 95.5,92.5 103.5,92.5 Z"/></g>
<g><path style="opacity:0.101" fill="#ffe3e4" d="M 103.5,93.5 C 96.3225,94.1666 88.9891,94.8333 81.5,95.5C 80.3954,97.6114 78.7288,98.9447 76.5,99.5C 76.5,99.1667 76.5,98.8333 76.5,98.5C 77.8333,97.8333 78.8333,96.8333 79.5,95.5C 87.2279,93.5821 95.2279,92.9154 103.5,93.5 Z"/></g>
<g><path style="opacity:0.178" fill="#fccece" d="M 115.5,88.5 C 115.5,91.5 115.5,94.5 115.5,97.5C 118.237,97.5987 120.904,97.2653 123.5,96.5C 121.375,98.8183 118.709,99.6516 115.5,99C 114.875,96.1997 114.208,93.3664 113.5,90.5C 110.273,91.9094 106.94,92.9094 103.5,93.5C 103.5,93.1667 103.5,92.8333 103.5,92.5C 107.618,91.3494 111.618,90.0161 115.5,88.5 Z"/></g>
<g><path style="opacity:1" fill="#e25159" d="M 115.5,88.5 C 116.117,88.6107 116.617,88.944 117,89.5C 117.495,91.4727 117.662,93.4727 117.5,95.5C 119.903,95.552 122.236,95.2186 124.5,94.5C 124.167,95.1667 123.833,95.8333 123.5,96.5C 120.904,97.2653 118.237,97.5987 115.5,97.5C 115.5,94.5 115.5,91.5 115.5,88.5 Z"/></g>
<g><path style="opacity:0.231" fill="#fdd2d4" d="M 47.5,65.5 C 48.1174,65.6107 48.6174,65.944 49,66.5C 49.7698,74.5485 49.6032,82.5485 48.5,90.5C 46.7041,91.7927 45.0375,93.2927 43.5,95C 39.5,95.3333 35.5,95.6667 31.5,96C 27.5424,103.128 21.8757,108.295 14.5,111.5C 21.3062,106.859 26.9729,101.026 31.5,94C 35.1939,93.7221 38.8606,93.7221 42.5,94C 47.9044,89.8271 49.9044,84.3271 48.5,77.5C 48.4318,73.4504 48.0984,69.4504 47.5,65.5 Z"/></g>
<g><path style="opacity:1" fill="#e13d3f" d="M 146.5,78.5 C 146.5,78.8333 146.5,79.1667 146.5,79.5C 145.673,84.6509 145.173,89.9842 145,95.5C 144,97.5 143,99.5 142,101.5C 140.989,102.337 139.822,102.67 138.5,102.5C 138.334,98.4862 138.501,94.4862 139,90.5C 139.667,89.8333 140.333,89.1667 141,88.5C 141.667,82.5 141.667,76.5 141,70.5C 140.716,68.1144 139.716,67.4477 138,68.5C 137.304,71.4781 136.804,74.4781 136.5,77.5C 136.672,78.4916 136.338,79.1583 135.5,79.5C 135.167,79.5 134.833,79.5 134.5,79.5C 134.954,76.1349 135.62,72.8015 136.5,69.5C 135.157,66.9907 134.657,64.3241 135,61.5C 136.631,64.149 138.965,65.8157 142,66.5C 142.333,74.5 142.667,82.5 143,90.5C 143.768,86.2165 144.934,82.2165 146.5,78.5 Z"/></g>
<g><path style="opacity:0.963" fill="#da454c" d="M 76.5,98.5 C 76.5,98.8333 76.5,99.1667 76.5,99.5C 73.1501,99.335 69.8168,99.5017 66.5,100C 65.1811,103.155 62.8477,104.988 59.5,105.5C 55.9581,105.813 52.6248,105.479 49.5,104.5C 53.8814,104.628 58.2147,104.295 62.5,103.5C 62.5614,101.408 63.5614,99.9078 65.5,99C 69.1516,98.5014 72.8183,98.3347 76.5,98.5 Z"/></g>
<g><path style="opacity:0.384" fill="#f7c6c4" d="M 76.5,99.5 C 73.8481,101.202 71.0147,101.536 68,100.5C 66.395,104.276 63.5616,106.276 59.5,106.5C 59.5,106.167 59.5,105.833 59.5,105.5C 62.8477,104.988 65.1811,103.155 66.5,100C 69.8168,99.5017 73.1501,99.335 76.5,99.5 Z"/></g>
<g><path style="opacity:0.933" fill="#ec8e8e" d="M 49.5,104.5 C 52.6248,105.479 55.9581,105.813 59.5,105.5C 59.5,105.833 59.5,106.167 59.5,106.5C 53.4429,107.738 47.4429,107.405 41.5,105.5C 39.7354,104.539 37.7354,104.205 35.5,104.5C 35.9704,103.307 36.9704,102.64 38.5,102.5C 42.0968,103.589 45.7634,104.255 49.5,104.5 Z"/></g>
<g><path style="opacity:1" fill="#e53d3f" d="M 48.5,90.5 C 47.3702,92.3146 46.7036,94.3146 46.5,96.5C 41.8882,97.194 37.2215,97.194 32.5,96.5C 29.8401,100.978 27.5067,105.645 25.5,110.5C 27.9424,110.646 28.6091,109.813 27.5,108C 29.1341,107.506 30.8008,107.34 32.5,107.5C 28.7875,110.884 25.1208,114.217 21.5,117.5C 21.1583,118.338 20.4916,118.672 19.5,118.5C 16.7334,118.858 14.0667,119.525 11.5,120.5C 8.98323,123.019 7.31657,126.019 6.5,129.5C 5.5,129.5 4.5,129.5 3.5,129.5C 3.33537,126.482 3.50204,123.482 4,120.5C 6.01616,119.045 6.84949,117.045 6.5,114.5C 8.73535,114.795 10.7354,114.461 12.5,113.5C 13.1667,112.833 13.8333,112.167 14.5,111.5C 21.8757,108.295 27.5424,103.128 31.5,96C 35.5,95.6667 39.5,95.3333 43.5,95C 45.0375,93.2927 46.7041,91.7927 48.5,90.5 Z"/></g>
<g><path style="opacity:0.365" fill="#f9cecc" d="M 14.5,111.5 C 13.8333,112.167 13.1667,112.833 12.5,113.5C 10.1667,113.5 7.83333,113.5 5.5,113.5C 5.78281,112.711 6.28281,112.044 7,111.5C 9.39381,112.136 11.8938,112.136 14.5,111.5 Z"/></g>
<g><path style="opacity:0.329" fill="#fcc2c2" d="M 35.5,104.5 C 37.7354,104.205 39.7354,104.539 41.5,105.5C 39.8008,105.34 38.1341,105.506 36.5,106C 32.5076,111.16 27.5076,114.994 21.5,117.5C 25.1208,114.217 28.7875,110.884 32.5,107.5C 33.8333,106.833 34.8333,105.833 35.5,104.5 Z"/></g>
<g><path style="opacity:0.169" fill="#ffded8" d="M 5.5,113.5 C 5.5,115.167 5.5,116.833 5.5,118.5C 4.5,118.5 3.5,118.5 2.5,118.5C 3.69234,116.887 4.69234,115.22 5.5,113.5 Z"/></g>
<g><path style="opacity:0.549" fill="#fa9699" d="M 2.5,119.5 C 1.9031,124.294 2.56977,128.627 4.5,132.5C 4.5,132.833 4.5,133.167 4.5,133.5C 3.5,133.5 2.5,133.5 1.5,133.5C 1.18054,128.637 1.51388,123.97 2.5,119.5 Z"/></g>
<g><path style="opacity:0.965" fill="#d34347" d="M 5.5,113.5 C 7.83333,113.5 10.1667,113.5 12.5,113.5C 10.7354,114.461 8.73535,114.795 6.5,114.5C 6.84949,117.045 6.01616,119.045 4,120.5C 3.50204,123.482 3.33537,126.482 3.5,129.5C 4.5,129.5 5.5,129.5 6.5,129.5C 7.31657,126.019 8.98323,123.019 11.5,120.5C 10.1722,125.165 7.83891,129.165 4.5,132.5C 2.56977,128.627 1.9031,124.294 2.5,119.5C 2.5,119.167 2.5,118.833 2.5,118.5C 3.5,118.5 4.5,118.5 5.5,118.5C 5.5,116.833 5.5,115.167 5.5,113.5 Z"/></g>
<g><path style="opacity:0.024" fill="#ffe4e0" d="M 19.5,118.5 C 17.78,119.864 15.78,120.864 13.5,121.5C 11.2987,125.462 9.29869,129.462 7.5,133.5C 6.5,133.5 5.5,133.5 4.5,133.5C 4.5,133.167 4.5,132.833 4.5,132.5C 7.83891,129.165 10.1722,125.165 11.5,120.5C 14.0667,119.525 16.7334,118.858 19.5,118.5 Z"/></g>
<g><path style="opacity:0.037" fill="#fef1f0" d="M 2.5,118.5 C 2.5,118.833 2.5,119.167 2.5,119.5C 1.51388,123.97 1.18054,128.637 1.5,133.5C 1.16667,133.5 0.833333,133.5 0.5,133.5C -0.108336,128.056 0.558331,123.056 2.5,118.5 Z"/></g>
</svg>
